<svg width="413" height="398" viewBox="0 0 413 398" fill="none" xmlns="http://www.w3.org/2000/svg">
<path d="M222.7 397.2C352.2 397.2 412.7 354.4 412.7 281.6C412.7 203.5 347.9 185.3 215.7 177.2C102.8 170.2 62.1 157.9 62.1 110.8C62.1 62.6 105.5 36.4 200.2 36.4C296.5 36.4 355.4 64.8 364 125.8H408.4C396.1 44.4 326.5 0 201.3 0C79.3 0 19.3 43.9 19.3 111.9C19.3 185.2 79.8 205 199.1 213.1C319 221.1 370.4 226.5 370.4 283.8C370.4 332 327 359.3 223.2 359.3C110.3 359.3 56.7 331.5 46 252.8H0C12.3 351.7 73.9001 397.2 222.7 397.2Z" fill="black"/>
</svg>
